<svg width="19" height="14" viewBox="0 0 19 14" fill="none" xmlns="http://www.w3.org/2000/svg">
<path d="M11.5993 12.9141C11.3681 12.683 11.2572 12.4037 11.2664 12.0762C11.2764 11.7488 11.397 11.4695 11.6281 11.2383L14.893 7.9735H2.00696C1.67951 7.9735 1.40484 7.86255 1.18294 7.64066C0.961819 7.41954 0.851257 7.14525 0.851257 6.8178C0.851257 6.49036 0.961819 6.21568 1.18294 5.99379C1.40484 5.77267 1.67951 5.66211 2.00696 5.66211H14.893L11.5993 2.36837C11.3681 2.13723 11.2525 1.86255 11.2525 1.54435C11.2525 1.22692 11.3681 0.952635 11.5993 0.721496C11.8304 0.490356 12.1051 0.374786 12.4233 0.374786C12.7407 0.374786 13.015 0.490356 13.2461 0.721496L18.5334 6.00881C18.649 6.12438 18.7311 6.24959 18.7796 6.38442C18.8274 6.51925 18.8513 6.66371 18.8513 6.8178C18.8513 6.9719 18.8274 7.11636 18.7796 7.25119C18.7311 7.38602 18.649 7.51122 18.5334 7.62679L13.2172 12.943C13.0054 13.1549 12.7407 13.2608 12.4233 13.2608C12.1051 13.2608 11.8304 13.1453 11.5993 12.9141Z" fill="white"/>
</svg>
